<mxfile host="Electron" agent="Mozilla/5.0 (Macintosh; Intel Mac OS X 10_15_7) AppleWebKit/537.36 (KHTML, like Gecko) draw.io/28.2.8 Chrome/140.0.7339.240 Electron/38.4.0 Safari/537.36" version="28.2.8">
  <diagram name="Page-1" id="qTks4ml46yPVQlJDsnob">
    <mxGraphModel dx="1216" dy="905" grid="1" gridSize="10" guides="1" tooltips="1" connect="1" arrows="1" fold="1" page="1" pageScale="1" pageWidth="850" pageHeight="1100" math="0" shadow="0">
      <root>
        <mxCell id="0" />
        <mxCell id="1" parent="0" />
        <mxCell id="bgoTZBbssSBPb9AjZxUO-2" value="" style="rounded=0;whiteSpace=wrap;html=1;" vertex="1" parent="1">
          <mxGeometry x="150" y="40" width="670" height="540" as="geometry" />
        </mxCell>
        <mxCell id="bgoTZBbssSBPb9AjZxUO-9" style="edgeStyle=orthogonalEdgeStyle;rounded=0;orthogonalLoop=1;jettySize=auto;html=1;entryX=0;entryY=0.5;entryDx=0;entryDy=0;endArrow=none;endFill=0;" edge="1" parent="1" source="bgoTZBbssSBPb9AjZxUO-3" target="bgoTZBbssSBPb9AjZxUO-4">
          <mxGeometry relative="1" as="geometry" />
        </mxCell>
        <mxCell id="bgoTZBbssSBPb9AjZxUO-3" value="người dùng" style="shape=umlActor;verticalLabelPosition=bottom;verticalAlign=top;html=1;outlineConnect=0;" vertex="1" parent="1">
          <mxGeometry x="80" y="190" width="30" height="60" as="geometry" />
        </mxCell>
        <mxCell id="bgoTZBbssSBPb9AjZxUO-4" value="Đăng nhập" style="ellipse;whiteSpace=wrap;html=1;" vertex="1" parent="1">
          <mxGeometry x="200" y="180" width="120" height="80" as="geometry" />
        </mxCell>
        <mxCell id="bgoTZBbssSBPb9AjZxUO-11" style="edgeStyle=orthogonalEdgeStyle;rounded=0;orthogonalLoop=1;jettySize=auto;html=1;entryX=1;entryY=0.5;entryDx=0;entryDy=0;dashed=1;" edge="1" parent="1" source="bgoTZBbssSBPb9AjZxUO-5" target="bgoTZBbssSBPb9AjZxUO-4">
          <mxGeometry relative="1" as="geometry" />
        </mxCell>
        <mxCell id="bgoTZBbssSBPb9AjZxUO-15" style="edgeStyle=orthogonalEdgeStyle;rounded=0;orthogonalLoop=1;jettySize=auto;html=1;dashed=1;" edge="1" parent="1" source="bgoTZBbssSBPb9AjZxUO-5" target="bgoTZBbssSBPb9AjZxUO-8">
          <mxGeometry relative="1" as="geometry" />
        </mxCell>
        <mxCell id="bgoTZBbssSBPb9AjZxUO-5" value="Đăng ký môn học" style="ellipse;whiteSpace=wrap;html=1;" vertex="1" parent="1">
          <mxGeometry x="500" y="120" width="120" height="80" as="geometry" />
        </mxCell>
        <mxCell id="bgoTZBbssSBPb9AjZxUO-13" style="edgeStyle=orthogonalEdgeStyle;rounded=0;orthogonalLoop=1;jettySize=auto;html=1;entryX=1;entryY=0.5;entryDx=0;entryDy=0;dashed=1;" edge="1" parent="1" source="bgoTZBbssSBPb9AjZxUO-6" target="bgoTZBbssSBPb9AjZxUO-4">
          <mxGeometry relative="1" as="geometry">
            <mxPoint x="410" y="220" as="targetPoint" />
          </mxGeometry>
        </mxCell>
        <mxCell id="bgoTZBbssSBPb9AjZxUO-6" value="Kiểm tra lịch học" style="ellipse;whiteSpace=wrap;html=1;" vertex="1" parent="1">
          <mxGeometry x="500" y="450" width="120" height="80" as="geometry" />
        </mxCell>
        <mxCell id="bgoTZBbssSBPb9AjZxUO-14" style="edgeStyle=orthogonalEdgeStyle;rounded=0;orthogonalLoop=1;jettySize=auto;html=1;entryX=1;entryY=0.5;entryDx=0;entryDy=0;dashed=1;" edge="1" parent="1" source="bgoTZBbssSBPb9AjZxUO-7" target="bgoTZBbssSBPb9AjZxUO-4">
          <mxGeometry relative="1" as="geometry" />
        </mxCell>
        <mxCell id="bgoTZBbssSBPb9AjZxUO-7" value="Xem môn học có trùng giờ&amp;nbsp;" style="ellipse;whiteSpace=wrap;html=1;" vertex="1" parent="1">
          <mxGeometry x="500" y="290" width="120" height="80" as="geometry" />
        </mxCell>
        <mxCell id="bgoTZBbssSBPb9AjZxUO-8" value="Xác nhận đăng ký" style="ellipse;whiteSpace=wrap;html=1;" vertex="1" parent="1">
          <mxGeometry x="700" y="120" width="120" height="80" as="geometry" />
        </mxCell>
        <mxCell id="bgoTZBbssSBPb9AjZxUO-16" value="&amp;lt;&amp;lt;include&amp;gt;&amp;gt;" style="text;html=1;whiteSpace=wrap;strokeColor=none;fillColor=none;align=center;verticalAlign=middle;rounded=0;" vertex="1" parent="1">
          <mxGeometry x="630" y="130" width="60" height="30" as="geometry" />
        </mxCell>
        <mxCell id="bgoTZBbssSBPb9AjZxUO-17" value="&amp;lt;&amp;lt;extend&amp;gt;&amp;gt;" style="text;html=1;whiteSpace=wrap;strokeColor=none;fillColor=none;align=center;verticalAlign=middle;rounded=0;" vertex="1" parent="1">
          <mxGeometry x="425" y="460" width="60" height="30" as="geometry" />
        </mxCell>
        <mxCell id="bgoTZBbssSBPb9AjZxUO-18" value="&amp;lt;&amp;lt;extend&amp;gt;&amp;gt;" style="text;html=1;whiteSpace=wrap;strokeColor=none;fillColor=none;align=center;verticalAlign=middle;rounded=0;" vertex="1" parent="1">
          <mxGeometry x="425" y="120" width="60" height="30" as="geometry" />
        </mxCell>
        <mxCell id="bgoTZBbssSBPb9AjZxUO-19" value="&amp;lt;&amp;lt;extend&amp;gt;&amp;gt;" style="text;html=1;whiteSpace=wrap;strokeColor=none;fillColor=none;align=center;verticalAlign=middle;rounded=0;" vertex="1" parent="1">
          <mxGeometry x="425" y="295" width="60" height="30" as="geometry" />
        </mxCell>
      </root>
    </mxGraphModel>
  </diagram>
</mxfile>
